<svg id="Capa_1" data-name="Capa 1" xmlns="http://www.w3.org/2000/svg" viewBox="0 0 147.73 147.73"><defs><style>.cls-1{fill:#1d1d1b;stroke:#fff;stroke-miterlimit:10;stroke-width:0.9px;}.cls-2{fill:#fff;}</style></defs><circle class="cls-1" cx="73.87" cy="73.87" r="73.42"/><path class="cls-2" d="M187.37,253.82H206a2.49,2.49,0,0,0,2.23-1.38l41.12-82.26-26.64,14.14a2.43,2.43,0,0,0-1.06,1.09Z" transform="translate(-134.13 -136.81)"/><path class="cls-2" d="M184.61,253.82l-9.94-69.13h18a2.51,2.51,0,0,1,2.48,2.15l5.12,35.74Z" transform="translate(-134.13 -136.81)"/><path class="cls-2" d="M187.37,253.82H206a2.49,2.49,0,0,0,2.23-1.38l41.12-82.26-26.64,14.14a2.43,2.43,0,0,0-1.06,1.09Z" transform="translate(-134.13 -136.81)"/><path class="cls-2" d="M184.61,253.82l-9.94-69.13h18a2.51,2.51,0,0,1,2.48,2.15l5.12,35.74Z" transform="translate(-134.13 -136.81)"/></svg>