<svg id="Capa_1" data-name="Capa 1" xmlns="http://www.w3.org/2000/svg" viewBox="0 0 303.17 83.64"><defs><style>.cls-1{fill:#fff;}</style></defs><path class="cls-1" d="M135.09,186.41l-16.7,51a12.5,12.5,0,0,0,11.88,16.39H167.2a2.48,2.48,0,0,0,2.37-1.72l4.79-14.64H138.54l2.71-8.3a2.5,2.5,0,0,1,2.38-1.72h29.44a2.51,2.51,0,0,0,2.38-1.73l4.78-14.63H147.17l2.71-8.28a2.48,2.48,0,0,1,2.37-1.72h32.2a2.5,2.5,0,0,0,2.38-1.73l4.8-14.66H137.46A2.5,2.5,0,0,0,135.09,186.41Z" transform="translate(-60.41 -170.18)"/><path class="cls-1" d="M254.64,253.82h46.09a20,20,0,0,0,19-13.78l2.45-7.5a14,14,0,0,0-10.33-18l-24.26-5.26a3.49,3.49,0,0,1-2.58-4.51l.41-1.25a3.49,3.49,0,0,1,3.32-2.41h36.1a2.49,2.49,0,0,0,2.37-1.73l4.8-14.66H285.93a20,20,0,0,0-19,13.78L264.47,206a14,14,0,0,0,10.34,18l24.24,5.26a3.51,3.51,0,0,1,2.58,4.51l-.41,1.26a3.52,3.52,0,0,1-3.33,2.41H261.82a2.49,2.49,0,0,0-2.38,1.72Z" transform="translate(-60.41 -170.18)"/><path class="cls-1" d="M345.25,184.69h18.34L341.53,252.1a2.48,2.48,0,0,1-2.37,1.72H320.82l22.06-67.41A2.5,2.5,0,0,1,345.25,184.69Z" transform="translate(-60.41 -170.18)"/><path class="cls-1" d="M73.12,253.82h18.6A2.49,2.49,0,0,0,94,252.44l41.12-82.26-26.65,14.14a2.48,2.48,0,0,0-1.06,1.09Z" transform="translate(-60.41 -170.18)"/><path class="cls-1" d="M70.35,253.82l-9.94-69.13h18a2.5,2.5,0,0,1,2.47,2.15L86,222.58Z" transform="translate(-60.41 -170.18)"/><path class="cls-1" d="M135.09,186.41l-16.7,51a12.5,12.5,0,0,0,11.88,16.39H167.2a2.48,2.48,0,0,0,2.37-1.72l4.79-14.64H138.54l2.71-8.3a2.5,2.5,0,0,1,2.38-1.72h29.44a2.51,2.51,0,0,0,2.38-1.73l4.78-14.63H147.17l2.71-8.28a2.48,2.48,0,0,1,2.37-1.72h32.2a2.5,2.5,0,0,0,2.38-1.73l4.8-14.66H137.46A2.5,2.5,0,0,0,135.09,186.41Z" transform="translate(-60.41 -170.18)"/><path class="cls-1" d="M254.64,253.82h46.09a20,20,0,0,0,19-13.78l2.45-7.5a14,14,0,0,0-10.33-18l-24.26-5.26a3.49,3.49,0,0,1-2.58-4.51l.41-1.25a3.49,3.49,0,0,1,3.32-2.41h36.1a2.49,2.49,0,0,0,2.37-1.73l4.8-14.66H285.93a20,20,0,0,0-19,13.78L264.47,206a14,14,0,0,0,10.34,18l24.24,5.26a3.51,3.51,0,0,1,2.58,4.51l-.41,1.26a3.52,3.52,0,0,1-3.33,2.41H261.82a2.49,2.49,0,0,0-2.38,1.72Z" transform="translate(-60.41 -170.18)"/><path class="cls-1" d="M345.25,184.69h18.34L341.53,252.1a2.48,2.48,0,0,1-2.37,1.72H320.82l22.06-67.41A2.5,2.5,0,0,1,345.25,184.69Z" transform="translate(-60.41 -170.18)"/><path class="cls-1" d="M73.12,253.82h18.6A2.49,2.49,0,0,0,94,252.44l41.12-82.26-26.65,14.14a2.48,2.48,0,0,0-1.06,1.09Z" transform="translate(-60.41 -170.18)"/><path class="cls-1" d="M70.35,253.82l-9.94-69.13h18a2.5,2.5,0,0,1,2.47,2.15L86,222.58Z" transform="translate(-60.41 -170.18)"/><path class="cls-1" d="M248.07,184.69H200.71a2.52,2.52,0,0,0-2.38,1.72l-22.05,67.41h18.34A2.48,2.48,0,0,0,197,252.1l6-18.37h0l6-18.42h0l4.65-14.23h22.66a2.5,2.5,0,0,1,2.38,3.27l-3.45,10.55a2.52,2.52,0,0,1-2.38,1.72H211.36L206,233h12.35a2.48,2.48,0,0,1,2.37,1.72l5.7,17.41a2.49,2.49,0,0,0,2.37,1.72h18.52L240.5,233c5.34-1.36,11.25-6.8,12.92-11.92l6.53-20A12.5,12.5,0,0,0,248.07,184.69Z" transform="translate(-60.41 -170.18)"/></svg>